<svg version="1.1" id="Layer_1" xmlns="http://www.w3.org/2000/svg" xmlns:xlink="http://www.w3.org/1999/xlink" x="0px" y="0px"
	 viewBox="0 0 512 512" style="enable-background:new 0 0 512 512;" xml:space="preserve">
<path class="st0" d="M371.7,242.4c-46.7-1.1-84.5-20.8-79.3-72.6C298.6,108.5,274.6,66,225.5,66c0,0-48.8-2.4-77.2,42.5
	c-24.5,38.7-7.6,74.7-8.1,104c0,0,8.6,47.3-39.6,73.2c-18.5,10-61.5,26.4-64.3,76.6c-2.9,50.3,20.8,80.6,48.1,83.5
	c24.5,2.6,70.3-10.9,67.7-80.5c-2.2-58.1-14.8-109.3,67.2-126.9c82-17.6,83.9,71.3,84.4,85.9s9.1,73.2,52.9,94.2
	c43.9,21,107.3,1.9,117.3-52.7C483.8,311,461.1,244.5,371.7,242.4z"/>
<style>
    svg { fill: #FF6B00; }

    @media (prefers-color-scheme: dark) {
        svg { fill: #FFF; }
    }
</style>
</svg>
